{"asset":{"version":"2.0","generator":"Blockbench 4.7.2 glTF exporter"},"scenes":[{"nodes":[12],"name":"blockbench_export"}],"scene":0,"nodes":[{"translation":[0,0,0.0078125],"name":"cylinder","mesh":0},{"translation":[0.25,0.125,0.2109375],"name":"wheel_left_front","children":[0]},{"translation":[0,0,0.0078125],"name":"cylinder","mesh":1},{"rotation":[0,-1,0,6.123233995736766e-17],"translation":[-0.21875,0.125,0.2109375],"name":"wheel_right_front","children":[2]},{"translation":[0,0,0.0078125],"name":"cylinder","mesh":2},{"rotation":[0,-1,0,6.123233995736766e-17],"translation":[-0.25,0.09375,-0.2890625],"name":"wheel_right_back","children":[4]},{"translation":[0,0,0.0078125],"name":"cylinder","mesh":3},{"translation":[0.25,0.09375,-0.2890625],"name":"wheel_left_back","children":[6]},{"rotation":[0.043619387365336,0,0,0.9990482215818578],"name":"body","mesh":4},{"name":"retro_left","mesh":5},{"name":"retro_right","mesh":6},{"name":"root","children":[1,3,5,7,8,9,10]},{"children":[11]}],"bufferViews":[{"buffer":0,"byteOffset":0,"byteLength":1728,"target":34962,"byteStride":12},{"buffer":0,"byteOffset":1728,"byteLength":1728,"target":34962,"byteStride":12},{"buffer":0,"byteOffset":3456,"byteLength":1152,"target":34962,"byteStride":8},{"buffer":0,"byteOffset":4608,"byteLength":384,"target":34963},{"buffer":0,"byteOffset":4992,"byteLength":1728,"target":34962,"byteStride":12},{"buffer":0,"byteOffset":6720,"byteLength":1728,"target":34962,"byteStride":12},{"buffer":0,"byteOffset":8448,"byteLength":1152,"target":34962,"byteStride":8},{"buffer":0,"byteOffset":9600,"byteLength":384,"target":34963},{"buffer":0,"byteOffset":9984,"byteLength":1728,"target":34962,"byteStride":12},{"buffer":0,"byteOffset":11712,"byteLength":1728,"target":34962,"byteStride":12},{"buffer":0,"byteOffset":13440,"byteLength":1152,"target":34962,"byteStride":8},{"buffer":0,"byteOffset":14592,"byteLength":384,"target":34963},{"buffer":0,"byteOffset":14976,"byteLength":1728,"target":34962,"byteStride":12},{"buffer":0,"byteOffset":16704,"byteLength":1728,"target":34962,"byteStride":12},{"buffer":0,"byteOffset":18432,"byteLength":1152,"target":34962,"byteStride":8},{"buffer":0,"byteOffset":19584,"byteLength":384,"target":34963},{"buffer":0,"byteOffset":19968,"byteLength":4032,"target":34962,"byteStride":12},{"buffer":0,"byteOffset":24000,"byteLength":4032,"target":34962,"byteStride":12},{"buffer":0,"byteOffset":28032,"byteLength":2688,"target":34962,"byteStride":8},{"buffer":0,"byteOffset":30720,"byteLength":1008,"target":34963},{"buffer":0,"byteOffset":31728,"byteLength":1248,"target":34962,"byteStride":12},{"buffer":0,"byteOffset":32976,"byteLength":1248,"target":34962,"byteStride":12},{"buffer":0,"byteOffset":34224,"byteLength":832,"target":34962,"byteStride":8},{"buffer":0,"byteOffset":35056,"byteLength":312,"target":34963},{"buffer":0,"byteOffset":35368,"byteLength":1248,"target":34962,"byteStride":12},{"buffer":0,"byteOffset":36616,"byteLength":1248,"target":34962,"byteStride":12},{"buffer":0,"byteOffset":37864,"byteLength":832,"target":34962,"byteStride":8},{"buffer":0,"byteOffset":38696,"byteLength":312,"target":34963}],"buffers":[{"byteLength":39008,"uri":"data:application/octet-stream;base64,"}],"accessors":[{"bufferView":0,"componentType":5126,"count":144,"max":[0.03125,0.1015625,0.1015625],"min":[-0.0625,-0.1015625,-0.1015625],"type":"VEC3"},{"bufferView":1,"componentType":5126,"count":144,"max":[1,1,1],"min":[-1,-1,-1],"type":"VEC3"},{"bufferView":2,"componentType":5126,"count":144,"max":[0.59375,0.578125],"min":[0,0],"type":"VEC2"},{"bufferView":3,"componentType":5123,"count":192,"max":[143],"min":[0],"type":"SCALAR"},{"bufferView":4,"componentType":5126,"count":144,"max":[0.03125,0.1015625,0.0859375],"min":[-0.0625,-0.1015625,-0.1171875],"type":"VEC3"},{"bufferView":5,"componentType":5126,"count":144,"max":[1,1,1],"min":[-1,-1,-1],"type":"VEC3"},{"bufferView":6,"componentType":5126,"count":144,"max":[0.59375,0.6015625],"min":[0.09375,0],"type":"VEC2"},{"bufferView":7,"componentType":5123,"count":192,"max":[143],"min":[0],"type":"SCALAR"},{"bufferView":8,"componentType":5126,"count":144,"max":[0.0390625,0.203125,0.125],"min":[-0.1171875,-0.0625,-0.140625],"type":"VEC3"},{"bufferView":9,"componentType":5126,"count":144,"max":[1,1,1],"min":[-1,-1,-1],"type":"VEC3"},{"bufferView":10,"componentType":5126,"count":144,"max":[0.578125,0.5703125],"min":[0.03125,0.109375],"type":"VEC2"},{"bufferView":11,"componentType":5123,"count":192,"max":[143],"min":[0],"type":"SCALAR"},{"bufferView":12,"componentType":5126,"count":144,"max":[0.0546875,0.203125,0.125],"min":[-0.1015625,-0.0625,-0.140625],"type":"VEC3"},{"bufferView":13,"componentType":5126,"count":144,"max":[1,1,1],"min":[-1,-1,-1],"type":"VEC3"},{"bufferView":14,"componentType":5126,"count":144,"max":[0.5859375,0.6015625],"min":[0,0.0625],"type":"VEC2"},{"bufferView":15,"componentType":5123,"count":192,"max":[143],"min":[0],"type":"SCALAR"},{"bufferView":16,"componentType":5126,"count":336,"max":[0.3125,0.5995585322380066,0.46995723247528076],"min":[-0.28125,0.11095328629016876,-0.5705971121788025],"type":"VEC3"},{"bufferView":17,"componentType":5126,"count":336,"max":[1,0.9961947202682495,0.9961947202682495],"min":[-1,-0.9961947202682495,-0.9980617165565491],"type":"VEC3"},{"bufferView":18,"componentType":5126,"count":336,"max":[0.6796875,0.5703125],"min":[0,0],"type":"VEC2"},{"bufferView":19,"componentType":5123,"count":504,"max":[335],"min":[0],"type":"SCALAR"},{"bufferView":20,"componentType":5126,"count":104,"max":[0.3984375,0.4017459750175476,0.18985317647457123],"min":[0.3046875,0.34711411595344543,0.12253425270318985],"type":"VEC3"},{"bufferView":21,"componentType":5126,"count":104,"max":[1,0.9830427765846252,0.9914448857307434],"min":[-1,-0.9914448857307434,-0.9914448857307434],"type":"VEC3"},{"bufferView":22,"componentType":5126,"count":104,"max":[0.59375,0.6171875],"min":[0.002671988680958748,0],"type":"VEC2"},{"bufferView":23,"componentType":5123,"count":156,"max":[103],"min":[0],"type":"SCALAR"},{"bufferView":24,"componentType":5126,"count":104,"max":[-0.2734375,0.4017459750175476,0.18985317647457123],"min":[-0.3671875,0.34711411595344543,0.12253425270318985],"type":"VEC3"},{"bufferView":25,"componentType":5126,"count":104,"max":[1,0.9830427765846252,0.9914448857307434],"min":[-1,-0.9914448857307434,-0.9914448857307434],"type":"VEC3"},{"bufferView":26,"componentType":5126,"count":104,"max":[0.6015625,0.5975874662399292],"min":[0.2659910023212433,0.0625],"type":"VEC2"},{"bufferView":27,"componentType":5123,"count":156,"max":[103],"min":[0],"type":"SCALAR"}],"materials":[{"pbrMetallicRoughness":{"metallicFactor":0,"roughnessFactor":1,"baseColorTexture":{"index":0}},"alphaMode":"MASK","alphaCutoff":0.05,"doubleSided":true}],"textures":[{"sampler":0,"source":0,"name":"camion"}],"samplers":[{"magFilter":9728,"minFilter":9728,"wrapS":33071,"wrapT":33071}],"images":[{"mimeType":"image/png","uri":"data:image/png;base64,"}],"meshes":[{"primitives":[{"mode":4,"attributes":{"POSITION":0,"NORMAL":1,"TEXCOORD_0":2},"indices":3,"material":0}]},{"primitives":[{"mode":4,"attributes":{"POSITION":4,"NORMAL":5,"TEXCOORD_0":6},"indices":7,"material":0}]},{"primitives":[{"mode":4,"attributes":{"POSITION":8,"NORMAL":9,"TEXCOORD_0":10},"indices":11,"material":0}]},{"primitives":[{"mode":4,"attributes":{"POSITION":12,"NORMAL":13,"TEXCOORD_0":14},"indices":15,"material":0}]},{"primitives":[{"mode":4,"attributes":{"POSITION":16,"NORMAL":17,"TEXCOORD_0":18},"indices":19,"material":0}]},{"primitives":[{"mode":4,"attributes":{"POSITION":20,"NORMAL":21,"TEXCOORD_0":22},"indices":23,"material":0}]},{"primitives":[{"mode":4,"attributes":{"POSITION":24,"NORMAL":25,"TEXCOORD_0":26},"indices":27,"material":0}]}]}